[Header]
FileType HTR
DataType HTRS
FileVersion 1
NumSegments 64
NumFrames 3
DataFrameRate 24
EulerRotationOrder ZYX
CalibrationUnits mm
RotationUnits Degrees
GlobalAxisofGravity Y
BoneLengthAxis Y
ScaleFactor 1.0
[SegmentNames&Hierarchy]
Hips	GLOBAL
Spine	Hips
Spine1	Spine
Spine2	Spine1
Neck	Spine2
Head	Neck
LeftEye	Head
RightEye	Head
LeftShoulder	Spine2
LeftArm	LeftShoulder
LeftForeArm	LeftArm
LeftHand	LeftForeArm
LeftHandThumb1	LeftHand
LeftHandThumb2	LeftHandThumb1
LeftHandThumb3	LeftHandThumb2
LeftHandThumb4	LeftHandThumb3
LeftHandIndex1	LeftHand
LeftHandIndex2	LeftHandIndex1
LeftHandIndex3	LeftHandIndex2
LeftHandIndex4	LeftHandIndex3
LeftHandMiddle1	LeftHand
LeftHandMiddle2	LeftHandMiddle1
LeftHandMiddle3	LeftHandMiddle2
LeftHandMiddle4	LeftHandMiddle3
LeftHandRing1	LeftHand
LeftHandRing2	LeftHandRing1
LeftHandRing3	LeftHandRing2
LeftHandRing4	LeftHandRing3
LeftHandPinky1	LeftHand
LeftHandPinky2	LeftHandPinky1
LeftHandPinky3	LeftHandPinky2
LeftHandPinky4	LeftHandPinky3
RightShoulder	Spine2
RightArm	RightShoulder
RightForeArm	RightArm
RightHand	RightForeArm
RightHandPinky1	RightHand
RightHandPinky2	RightHandPinky1
RightHandPinky3	RightHandPinky2
RightHandPinky4	RightHandPinky3
RightHandRing1	RightHand
RightHandRing2	RightHandRing1
RightHandRing3	RightHandRing2
RightHandRing4	RightHandRing3
RightHandMiddle1	RightHand
RightHandMiddle2	RightHandMiddle1
RightHandMiddle3	RightHandMiddle2
RightHandMiddle4	RightHandMiddle3
RightHandIndex1	RightHand
RightHandIndex2	RightHandIndex1
RightHandIndex3	RightHandIndex2
RightHandIndex4	RightHandIndex3
RightHandThumb1	RightHand
RightHandThumb2	RightHandThumb1
RightHandThumb3	RightHandThumb2
RightHandThumb4	RightHandThumb3
LeftUpLeg	Hips
LeftLeg	LeftUpLeg
LeftFoot	LeftLeg
LeftToeBase	LeftFoot
RightUpLeg	Hips
RightLeg	RightUpLeg
RightFoot	RightLeg
RightToeBase	RightFoot
[BasePosition]
Hips	0	0	0	0	0	0	1
Spine	0	0	0	0	0	0	1
Spine1	0	0	0	0	0	0	1
Spine2	0	0	0	0	0	0	1
Neck	0	0	0	0	0	0	1
Head	0	0	0	0	0	0	1
LeftEye	0	0	0	0	0	0	1
RightEye	0	0	0	0	0	0	1
LeftShoulder	0	0	0	0	0	0	1
LeftArm	0	0	0	0	0	0	1
LeftForeArm	0	0	0	0	0	0	1
LeftHand	0	0	0	0	0	0	1
LeftHandThumb1	0	0	0	0	0	0	1
LeftHandThumb2	0	0	0	0	0	0	1
LeftHandThumb3	0	0	0	0	0	0	1
LeftHandThumb4	0	0	0	0	0	0	1
LeftHandIndex1	0	0	0	0	0	0	1
LeftHandIndex2	0	0	0	0	0	0	1
LeftHandIndex3	0	0	0	0	0	0	1
LeftHandIndex4	0	0	0	0	0	0	1
LeftHandMiddle1	0	0	0	0	0	0	1
LeftHandMiddle2	0	0	0	0	0	0	1
LeftHandMiddle3	0	0	0	0	0	0	1
LeftHandMiddle4	0	0	0	0	0	0	1
LeftHandRing1	0	0	0	0	0	0	1
LeftHandRing2	0	0	0	0	0	0	1
LeftHandRing3	0	0	0	0	0	0	1
LeftHandRing4	0	0	0	0	0	0	1
LeftHandPinky1	0	0	0	0	0	0	1
LeftHandPinky2	0	0	0	0	0	0	1
LeftHandPinky3	0	0	0	0	0	0	1
LeftHandPinky4	0	0	0	0	0	0	1
RightShoulder	0	0	0	0	0	0	1
RightArm	0	0	0	0	0	0	1
RightForeArm	0	0	0	0	0	0	1
RightHand	0	0	0	0	0	0	1
RightHandPinky1	0	0	0	0	0	0	1
RightHandPinky2	0	0	0	0	0	0	1
RightHandPinky3	0	0	0	0	0	0	1
RightHandPinky4	0	0	0	0	0	0	1
RightHandRing1	0	0	0	0	0	0	1
RightHandRing2	0	0	0	0	0	0	1
RightHandRing3	0	0	0	0	0	0	1
RightHandRing4	0	0	0	0	0	0	1
RightHandMiddle1	0	0	0	0	0	0	1
RightHandMiddle2	0	0	0	0	0	0	1
RightHandMiddle3	0	0	0	0	0	0	1
RightHandMiddle4	0	0	0	0	0	0	1
RightHandIndex1	0	0	0	0	0	0	1
RightHandIndex2	0	0	0	0	0	0	1
RightHandIndex3	0	0	0	0	0	0	1
RightHandIndex4	0	0	0	0	0	0	1
RightHandThumb1	0	0	0	0	0	0	1
RightHandThumb2	0	0	0	0	0	0	1
RightHandThumb3	0	0	0	0	0	0	1
RightHandThumb4	0	0	0	0	0	0	1
LeftUpLeg	0	0	0	0	0	0	1
LeftLeg	0	0	0	0	0	0	1
LeftFoot	0	0	0	0	0	0	1
LeftToeBase	0	0	0	0	0	0	1
RightUpLeg	0	0	0	0	0	0	1
RightLeg	0	0	0	0	0	0	1
RightFoot	0	0	0	0	0	0	1
RightToeBase	0	0	0	0	0	0	1
[Hips]
36	35.49163818	1016.424927	7.854923725	3.214949608	-2.86570406	-0.9975222945	1.0
37	25.66786003	1031.935303	12.81518459	1.930563092	-1.596013665	-1.437749982	1.0
38	18.7891655	1032.975098	14.69646263	1.109060764	-0.5217718482	-2.263686419	1.0
[Spine]
36	0	101.8159943	1.315000057	2.376495361	-0.7682197094	-0.5345983505	1.0
37	0	101.8159943	1.315000057	1.715021372	-0.4500614703	-0.3218708634	1.0
38	0	101.8159943	1.315000057	1.574401021	-0.5429936051	0.3793568015	1.0
[Spine1]
36	0	100.8349991	-10.00800037	1.226246953	-0.1213777363	4.243292809	1.0
37	0	100.8349991	-10.00800037	1.130910993	0.08321050555	4.680518627	1.0
38	0	100.8349991	-10.00800037	1.044392109	0.1705683321	5.139403343	1.0
[Spine2]
36	0	91	-13.73399925	1.227892637	0.3431345224	4.17811203	1.0
37	0	91	-13.73399925	1.140977621	0.5669211149	4.610276222	1.0
38	0	91	-13.73399925	1.063649297	0.6710866094	5.063644886	1.0
[Neck]
36	0	166.7169952	-25.16200066	-1.590595245	-0.1431221366	-2.979273558	1.0
37	0	166.7169952	-25.16200066	-0.6125343442	-0.2577587962	-2.937075853	1.0
38	0	166.7169952	-25.16200066	-0.4377968013	-0.296564877	-2.955084801	1.0
[Head]
36	0	96.17900085	16.84999847	-4.983611584	0.4531529844	-9.741319656	1.0
37	0	96.17900085	16.84999847	-3.070447683	0.007577383891	-8.868228912	1.0
38	0	96.17900085	16.84999847	-2.019022703	-0.1667119563	-8.530086517	1.0
[LeftEye]
36	30.6760006	64.09500122	92.83599854	0	0	0	1.0
37	30.6760006	64.09500122	92.83599854	0	0	0	1.0
38	30.6760006	64.09500122	92.83599854	0	0	0	1.0
[RightEye]
36	-30.6760006	64.09500122	92.83499908	0	0	0	1.0
37	-30.6760006	64.09500122	92.83499908	0	0	0	1.0
38	-30.6760006	64.09500122	92.83499908	0	0	0	1.0
[LeftShoulder]
36	45.70400238	109.4599991	-26.28000069	4.331577778	-16.23475075	-4.55234623	1.0
37	45.70400238	109.4599991	-26.28000069	4.334662437	-16.10381508	-3.779808998	1.0
38	45.70400238	109.4599991	-26.28000069	4.41521883	-15.55606842	-3.799133539	1.0
[LeftArm]
36	105.923996	-5.24600029	-22.32099915	-2.558062077	1.3284688	-75.05436707	1.0
37	105.923996	-5.24600029	-22.32099915	-1.484296322	3.224107027	-76.63347626	1.0
38	105.923996	-5.24600029	-22.32099915	-1.96632278	4.136239052	-78.5569458	1.0
[LeftForeArm]
36	278.414978	-0.0009999999311	0	-4.166915005e-06	-19.51098633	-0.0001892012951	1.0
37	278.414978	-0.0009999999311	0	-8.090912161e-06	-21.81320953	-0.0001815061987	1.0
38	278.414978	-0.0009999999311	0	-6.828341839e-07	-22.83443069	-0.0001928225684	1.0
[LeftHand]
36	283.2879944	0	0	-27.45218277	-4.748457909	-10.63802147	1.0
37	283.2879944	0	0	-28.0893631	-2.604035139	-15.2339735	1.0
38	283.2879944	0	0	-28.72167778	-2.046949863	-15.59352875	1.0
[LeftHandThumb1]
36	24.6609993	-15.75	26.8239994	18.0878849	-3.883467436	10.23014927	1.0
37	24.6609993	-15.75	26.8239994	18.09202003	-3.878291607	10.23129463	1.0
38	24.6609993	-15.75	26.8239994	18.0898819	-3.881050348	10.2307024	1.0
[LeftHandThumb2]
36	32.29800034	-18.64699936	18.64699936	-0.4617297649	32.77022552	-2.85680294	1.0
37	32.29800034	-18.64699936	18.64699936	-0.4567915201	32.78262711	-2.853883505	1.0
38	32.29800034	-18.64699936	18.64699936	-0.4593731165	32.77613068	-2.855381012	1.0
[LeftHandThumb3]
36	26.52600098	-15.31499958	15.31499958	2.087124825	9.314930916	-0.01962107606	1.0
37	26.52600098	-15.31499958	15.31499958	2.088482857	9.319870949	-0.01837407798	1.0
38	26.52600098	-15.31499958	15.31499958	2.087765217	9.317274094	-0.01902617328	1.0
[LeftHandThumb4]
36	19.54599953	-11.28499985	11.28499985	0	0	0	1.0
37	19.54599953	-11.28499985	11.28499985	0	0	0	1.0
38	19.54599953	-11.28499985	11.28499985	0	0	0	1.0
[LeftHandIndex1]
36	91.09299469	-5.170999527	22.60099792	-2.88152504	6.57240963	-33.70288086	1.0
37	91.09299469	-5.170999527	22.60099792	-2.376053572	6.339279652	-29.2209053	1.0
38	91.09299469	-5.170999527	22.60099792	-1.623601437	5.873603821	-22.15680885	1.0
[LeftHandIndex2]
36	36.76399994	0	0	-2.343327045	4.716495991	-46.35749817	1.0
37	36.76399994	0	0	-1.98477304	4.441055298	-41.8920517	1.0
38	36.76399994	0	0	-1.469172955	3.947283983	-34.85112381	1.0
[LeftHandIndex3]
36	28.83100128	0	0	-1.11456871	3.159853697	-35.88101959	1.0
37	28.83100128	0	0	-0.8642539978	2.790899277	-31.43060684	1.0
38	28.83100128	0	0	-0.534239471	2.168752432	-24.41220474	1.0
[LeftHandIndex4]
36	23.92700005	0	0	0	0	0	1.0
37	23.92700005	0	0	0	0	0	1.0
38	23.92700005	0	0	0	0	0	1.0
[LeftHandMiddle1]
36	95.33399963	0	0	-4.982106686	9.719921112	-41.9796257	1.0
37	95.33399963	0	0	-4.351576805	9.684983253	-37.45941925	1.0
38	95.33399963	0	0	-3.375235319	9.494595528	-30.32890701	1.0
[LeftHandMiddle2]
36	36.98199844	0	0	-3.568689346	5.281507492	-59.29717636	1.0
37	36.98199844	0	0	-3.153365612	5.10389328	-54.81674957	1.0
38	36.98199844	0	0	-2.531909943	4.753898144	-47.75017166	1.0
[LeftHandMiddle3]
36	29.50900078	0	0	-1.273216963	3.756696701	-37.99256516	1.0
37	29.50900078	0	0	-1.005137324	3.40595746	-33.53822708	1.0
38	29.50900078	0	0	-0.644241333	2.809391975	-26.51430702	1.0
[LeftHandMiddle4]
36	28.3390007	0	0	0	0	0	1.0
37	28.3390007	0	0	0	0	0	1.0
38	28.3390007	0	0	0	0	0	1.0
[LeftHandRing1]
36	91.04499817	-0.4390000105	-18.65100098	-6.655043125	11.80922222	-53.19501495	1.0
37	91.04499817	-0.4390000105	-18.65100098	-6.021902561	11.94039631	-48.65975189	1.0
38	91.04499817	-0.4390000105	-18.65100098	-5.01683712	11.99288654	-41.4956665	1.0
[LeftHandRing2]
36	31.54000092	0	0	-3.176845312	5.649785995	-66.16043091	1.0
37	31.54000092	0	0	-2.784558535	5.443706036	-61.66614914	1.0
38	31.54000092	0	0	-2.204313517	5.052747726	-54.57777405	1.0
[LeftHandRing3]
36	29.37700081	0	0	-1.229635477	4.168038368	-45.06517029	1.0
37	29.37700081	0	0	-0.9594534039	3.818819523	-40.61037445	1.0
38	29.37700081	0	0	-0.5950523615	3.224296331	-33.58612823	1.0
[LeftHandRing4]
36	26.47500038	0	0	0	0	0	1.0
37	26.47500038	0	0	0	0	0	1.0
38	26.47500038	0	0	0	0	0	1.0
[LeftHandPinky1]
36	80.77799988	-4.887000084	-38.06099701	-12.44480133	14.68683434	-63.63993835	1.0
37	80.77799988	-4.887000084	-38.06099701	-11.26561069	15.16811657	-59.05303955	1.0
38	80.77799988	-4.887000084	-38.06099701	-9.324625015	15.73320961	-51.77302551	1.0
[LeftHandPinky2]
36	36	0	0	-4.196942329	5.021801949	-71.51316833	1.0
37	36	0	0	-3.771531105	4.891128063	-67.03915405	1.0
38	36	0	0	-3.126018047	4.613201618	-59.98108292	1.0
[LeftHandPinky3]
36	21.14200211	0	0	-2.132267952	4.834881306	-46.30976868	1.0
37	21.14200211	0	0	-1.793433547	4.545813084	-41.84455109	1.0
38	21.14200211	0	0	-1.311146498	4.034012318	-34.8041687	1.0
[LeftHandPinky4]
36	19.75699997	0	0	0	0	0	1.0
37	19.75699997	0	0	0	0	0	1.0
38	19.75699997	0	0	0	0	0	1.0
[RightShoulder]
36	-45.70000076	109.4620056	-26.28000069	4.811347961	6.024544716	-2.213151693	1.0
37	-45.70000076	109.4620056	-26.28000069	5.055006981	5.586858273	-2.42537117	1.0
38	-45.70000076	109.4620056	-26.28000069	4.998299599	5.190621376	-1.213588595	1.0
[RightArm]
36	-105.9280014	-5.248000145	-22.32099915	2.940552711	5.07487011	69.6781311	1.0
37	-105.9280014	-5.248000145	-22.32099915	3.62821269	1.795232654	70.94202423	1.0
38	-105.9280014	-5.248000145	-22.32099915	3.189466476	0.4918508828	70.94639587	1.0
[RightForeArm]
36	-278.414978	0	0	-1.882328888e-06	28.72363091	1.70801377e-06	1.0
37	-278.414978	0	0	-1.3505163e-06	26.28390694	6.167547781e-06	1.0
38	-278.414978	0	0	-9.154708209e-07	23.50989723	-1.236820844e-05	1.0
[RightHand]
36	-283.2879944	0	0.0009999999311	-13.49539089	1.091817379	14.27430248	1.0
37	-283.2879944	0	0.0009999999311	-12.68859768	-3.127631426	16.74283409	1.0
38	-283.2879944	0	0.0009999999311	-12.86363411	-5.316207886	16.76285553	1.0
[RightHandPinky1]
36	-80.76699829	-4.885000229	-38.06000137	-5.224009514	-16.12355423	36.91436768	1.0
37	-80.76699829	-4.885000229	-38.06000137	-5.220570087	-16.13457489	36.89345551	1.0
38	-80.76699829	-4.885000229	-38.06000137	-5.222351551	-16.12870979	36.9043808	1.0
[RightHandPinky2]
36	-36	0	0.0009999999311	-1.945061803	-3.816559792	45.67436218	1.0
37	-36	0	0.0009999999311	-1.9434973	-3.815191269	45.65351868	1.0
38	-36	0	0.0009999999311	-1.94431901	-3.815909386	45.66445923	1.0
[RightHandPinky3]
36	-21.14200211	0	0	-0.765933156	0.05379898846	22.13496017	1.0
37	-21.14200211	0	0	-0.7650060058	0.05561681092	22.11461639	1.0
38	-21.14200211	0	0	-0.7654929757	0.05466149747	22.12529373	1.0
[RightHandPinky4]
36	-19.75699997	0	0	0	0	0	1.0
37	-19.75699997	0	0	0	0	0	1.0
38	-19.75699997	0	0	0	0	0	1.0
[RightHandRing1]
36	-91.03599548	-0.4390000105	-18.65100098	-3.024687767	-11.54769516	26.97045898	1.0
37	-91.03599548	-0.4390000105	-18.65100098	-3.022133112	-11.55122471	26.94953918	1.0
38	-91.03599548	-0.4390000105	-18.65100098	-3.023468256	-11.54933643	26.96051025	1.0
[RightHandRing2]
36	-31.54000092	0	0	-1.19797349	-4.055862427	40.21272659	1.0
37	-31.54000092	0	0	-1.196722031	-4.054262161	40.19216537	1.0
38	-31.54000092	0	0	-1.197379231	-4.055102825	40.20296478	1.0
[RightHandRing3]
36	-29.37700081	0	0	-0.1385395974	0.08899726719	17.82612991	1.0
37	-29.37700081	0	0	-0.1381115615	0.09097902477	17.8057785	1.0
38	-29.37700081	0	0	-0.1383358538	0.08993768692	17.81647301	1.0
[RightHandRing4]
36	-26.47500038	0	0	0	0	0	1.0
37	-26.47500038	0	0	0	0	0	1.0
38	-26.47500038	0	0	0	0	0	1.0
[RightHandMiddle1]
36	-95.32500458	0	0	-1.523073196	-8.680864334	15.89222527	1.0
37	-95.32500458	0	0	-1.520579457	-8.674743652	15.8719368	1.0
38	-95.32500458	0	0	-1.521881342	-8.67794323	15.88257694	1.0
[RightHandMiddle2]
36	-36.98199844	0	0	-1.42751646	-3.823779106	33.42887878	1.0
37	-36.98199844	0	0	-1.42611146	-3.822255373	33.40842438	1.0
38	-36.98199844	0	0	-1.42684865	-3.823054552	33.41917038	1.0
[RightHandMiddle3]
36	-29.50900078	0	0	-0.2537781	-1.679290771	15.9103508	1.0
37	-29.50900078	0	0	-0.2531863153	-1.677354574	15.88998318	1.0
38	-29.50900078	0	0	-0.2534970045	-1.678368449	15.90068531	1.0
[RightHandMiddle4]
36	-28.3390007	0	0.0009999999311	0	0	0	1.0
37	-28.3390007	0	0.0009999999311	0	0	0	1.0
38	-28.3390007	0	0.0009999999311	0	0	0	1.0
[RightHandIndex1]
36	-91.08300018	-5.167999744	22.60099792	-0.302277863	-4.677779675	7.85529995	1.0
37	-91.08300018	-5.167999744	22.60099792	-0.3004484475	-4.66390419	7.836022854	1.0
38	-91.08300018	-5.167999744	22.60099792	-0.3014112711	-4.671206474	7.846164703	1.0
[RightHandIndex2]
36	-36.76399994	0	0	-0.6287239194	-2.771158457	20.58417511	1.0
37	-36.76399994	0	0	-0.6277399659	-2.769332886	20.56378555	1.0
38	-36.76399994	0	0	-0.6282557845	-2.770293236	20.57449913	1.0
[RightHandIndex3]
36	-28.83100128	0	0	-0.2387734652	-0.1585448384	13.85569477	1.0
37	-28.83100128	0	0	-0.2382825613	-0.1565575153	13.83533669	1.0
38	-28.83100128	0	0	-0.2385401726	-0.1576014757	13.846035	1.0
[RightHandIndex4]
36	-23.92700005	0	0	0	0	0	1.0
37	-23.92700005	0	0	0	0	0	1.0
38	-23.92700005	0	0	0	0	0	1.0
[RightHandThumb1]
36	-24.64799881	-15.72700024	26.82600021	18.09397888	3.876013041	-10.23223686	1.0
37	-24.64799881	-15.72700024	26.82600021	18.08664131	3.885555267	-10.23033524	1.0
38	-24.64799881	-15.72700024	26.82600021	18.09039879	3.880438089	-10.23124313	1.0
[RightHandThumb2]
36	-32.29800034	-18.64699936	18.64699936	-0.4550035298	-32.78767395	2.854144335	1.0
37	-32.29800034	-18.64699936	18.64699936	-0.4639376998	-32.76524734	2.859431267	1.0
38	-32.29800034	-18.64699936	18.64699936	-0.4592407942	-32.77703476	2.856649399	1.0
[RightHandThumb3]
36	-26.52600098	-15.31399918	15.31399918	1.86752069	-8.468688011	0.8288186789	1.0
37	-26.52600098	-15.31399918	15.31399918	1.865197301	-8.459710121	0.8310126662	1.0
38	-26.52600098	-15.31399918	15.31399918	1.866415143	-8.464410782	0.8298846483	1.0
[RightHandThumb4]
36	-19.54599953	-11.28499985	11.28499985	0	0	0	1.0
37	-19.54599953	-11.28499985	11.28499985	0	0	0	1.0
38	-19.54599953	-11.28499985	11.28499985	0	0	0	1.0
[LeftUpLeg]
36	82.07800293	-67.51699829	-15.99599934	-21.6739254	13.06877899	6.167554855	1.0
37	82.07800293	-67.51699829	-15.99599934	-16.53523254	13.73343277	7.345573902	1.0
38	82.07800293	-67.51699829	-15.99599934	-15.20922375	14.1891489	8.438717842	1.0
[LeftLeg]
36	0	-443.7049866	2.845999956	25.48109436	8.739010811	4.932939053	1.0
37	0	-443.7049866	2.845999956	17.72844505	9.211612701	3.485595226	1.0
38	0	-443.7049866	2.845999956	16.53586006	9.503575325	3.681645632	1.0
[LeftFoot]
36	0	-444.2789917	-29.8219986	0.8627667427	2.935363531	-6.904191017	1.0
37	0	-444.2789917	-29.8219986	6.306646347	3.229598284	-6.877100468	1.0
38	0	-444.2789917	-29.8219986	6.160911083	3.371588945	-7.325009823	1.0
[LeftToeBase]
36	0	-87.28699493	107.1060028	-5.549543381	1.859880058e-06	-1.640297569e-07	1.0
37	0	-87.28699493	107.1060028	-7.385289669	7.306522548e-06	1.144455339e-07	1.0
38	0	-87.28699493	107.1060028	-6.185802937	-1.06510588e-05	1.885477104e-06	1.0
[RightUpLeg]
36	-82.07800293	-67.51699829	-15.99599934	-10.93611145	-3.946859598	4.741380215	1.0
37	-82.07800293	-67.51699829	-15.99599934	-2.125719786	-4.966552258	5.658804417	1.0
38	-82.07800293	-67.51699829	-15.99599934	0.914779067	-5.746445179	6.646038055	1.0
[RightLeg]
36	0	-443.7049866	2.861999989	19.23859406	-4.921101093	0.1725623012	1.0
37	0	-443.7049866	2.861999989	5.121780396	-5.087239265	1.381676435	1.0
38	0	-443.7049866	2.861999989	1.045182109	-5.119437218	2.366062641	1.0
[RightFoot]
36	0	-444.2770081	-29.83799934	-11.19209862	4.17606926	-5.257788181	1.0
37	0	-444.2770081	-29.83799934	-5.722607136	4.609680176	-5.851585865	1.0
38	0	-444.2770081	-29.83799934	-3.386564493	4.386589527	-6.696212292	1.0
[RightToeBase]
36	0	-87.28699493	107.1060028	-1.495292187	-1.781529249e-06	3.143928211e-07	1.0
37	0	-87.28699493	107.1060028	-0.6711736917	-1.424220613e-06	6.065073421e-07	1.0
38	0	-87.28699493	107.1060028	-1.893464088	9.753849781e-07	1.102500164e-06	1.0
[EndOfFile]
